<?xml version="1.0" standalone="no"?>
<!DOCTYPE svg PUBLIC "-//W3C//DTD SVG 20010904//EN"
 "http://www.w3.org/TR/2001/REC-SVG-20010904/DTD/svg10.dtd">
<svg version="1.0" xmlns="http://www.w3.org/2000/svg"
 width="373.000000pt" height="373.000000pt" viewBox="0 0 373.000000 373.000000"
 preserveAspectRatio="xMidYMid meet">
<metadata>
Created by potrace 1.11, written by Peter Selinger 2001-2013
</metadata>
<g transform="translate(0.000000,373.000000) scale(0.100000,-0.100000)"
fill="#000000" stroke="none">
<path d="M748 3548 l-3 -183 -147 -3 -148 -3 0 -244 0 -245 -80 0 -80 0 0
-375 0 -375 178 0 c118 0 172 -4 162 -10 -8 -5 -10 -10 -5 -10 6 1 19 7 29 15
11 8 14 15 8 15 -9 0 -12 32 -12 110 l0 111 293 -1 292 -2 5 96 c3 61 1 96 -5
97 -5 0 -55 1 -110 2 l-100 2 -3 124 c-3 94 0 126 10 132 11 7 11 9 0 9 -7 0
-10 5 -7 11 5 6 70 9 188 8 l182 -2 5 96 c3 56 1 93 -4 90 -5 -4 -6 4 -3 18 4
13 7 29 7 34 0 7 3 7 8 0 4 -6 85 -8 224 -5 119 3 214 2 211 -2 -2 -5 3 -8 11
-8 9 0 16 6 16 13 0 8 4 7 10 -3 5 -8 9 -122 9 -260 l0 -245 125 3 c146 4 136
13 133 -128 l-2 -95 -145 -2 c-80 -1 -149 -2 -155 -3 -5 0 -3 -5 5 -10 13 -9
13 -11 0 -20 -10 -6 -11 -10 -2 -10 9 0 12 -28 12 -107 l0 -108 515 -1 515 0
0 130 0 131 -245 -3 -245 -3 0 116 0 115 -37 1 c-21 0 -69 0 -108 0 -115 -1
-105 -24 -105 248 0 131 3 240 6 243 8 9 45 -3 39 -12 -6 -9 130 -5 144 5 5 3
12 1 16 -5 3 -5 18 -10 32 -10 18 0 24 4 19 15 -3 8 -2 14 2 14 4 -1 172 -1
375 0 l367 1 0 150 0 150 -392 2 -393 3 -3 183 -2 182 -805 0 -805 0 -2 -182z
m-93 -738 l20 -9 -20 -1 c-15 -1 -17 -3 -5 -8 13 -6 15 -40 16 -214 l1 -208
-109 0 -109 0 1 225 1 225 92 -1 c51 0 101 -4 112 -9z"/>
<path d="M498 2783 c12 -2 32 -2 45 0 12 2 2 4 -23 4 -25 0 -35 -2 -22 -4z"/>
<path d="M651 2414 c0 -11 3 -14 6 -6 3 7 2 16 -1 19 -3 4 -6 -2 -5 -13z"/>
<path d="M2180 2960 c0 -5 4 -10 9 -10 6 0 13 5 16 10 3 6 -1 10 -9 10 -9 0
-16 -4 -16 -10z"/>
<path d="M2858 2803 c7 -3 16 -2 19 1 4 3 -2 6 -13 5 -11 0 -14 -3 -6 -6z"/>
<path d="M1231 2574 c0 -11 3 -14 6 -6 3 7 2 16 -1 19 -3 4 -6 -2 -5 -13z"/>
<path d="M1110 2570 c-9 -6 -10 -10 -3 -10 6 0 15 5 18 10 8 12 4 12 -15 0z"/>
<path d="M2198 2573 c7 -3 16 -2 19 1 4 3 -2 6 -13 5 -11 0 -14 -3 -6 -6z"/>
<path d="M1913 2533 c9 -2 23 -2 30 0 6 3 -1 5 -18 5 -16 0 -22 -2 -12 -5z"/>
<path d="M2568 2053 c7 -3 16 -2 19 1 4 3 -2 6 -13 5 -11 0 -14 -3 -6 -6z"/>
<path d="M1041 1952 c-1 -10 -26 -12 -112 -10 -97 3 -112 1 -120 -14 -9 -16
-29 -18 -184 -18 l-175 0 0 -95 0 -95 -115 0 -115 0 0 -120 0 -120 -100 0
-100 0 0 -112 0 -113 247 0 248 0 3 -68 3 -69 40 7 c48 8 129 -2 129 -16 0 -6
-4 -8 -9 -5 -5 4 -11 -25 -13 -64 -2 -40 1 -72 7 -75 6 -2 -26 -4 -70 -3 -44
0 -91 -4 -105 -10 -14 -6 -20 -11 -15 -11 8 -1 12 -221 5 -293 -1 -16 -15 -18
-131 -18 l-129 0 0 -155 0 -155 -100 0 -100 0 0 -160 0 -160 505 0 505 0 2
428 3 427 225 0 225 0 3 -427 2 -428 635 0 635 0 0 145 0 145 -225 0 -225 0 0
108 0 107 -92 -3 c-59 -2 -88 0 -79 6 9 7 10 12 2 16 -7 5 -11 49 -10 131 1
68 -2 128 -5 133 -3 6 0 13 6 15 8 3 6 6 -4 6 -10 1 -18 6 -18 12 0 5 -5 7
-11 4 -6 -4 -17 1 -24 11 -13 18 -14 18 -15 2 0 -21 -16 -24 -23 -5 -4 10 -6
9 -6 0 -1 -8 -14 -13 -33 -13 -17 0 -28 3 -25 7 4 3 2 11 -3 18 -16 19 -15
156 1 166 8 5 48 8 88 7 l75 -3 0 120 1 120 323 0 322 0 0 93 0 92 -165 0
-165 0 0 115 0 115 -320 0 -320 0 0 110 c0 98 2 110 18 111 11 0 12 2 4 6 -7
3 -18 0 -25 -5 -8 -6 -143 -8 -374 -4 -324 4 -403 10 -345 25 13 4 11 5 -5 6
-13 0 -23 5 -23 11 0 5 8 7 18 4 14 -5 14 -4 2 4 -9 7 -18 8 -26 1 -9 -7 -14
-5 -17 8 -3 10 -5 12 -6 5z m626 -779 c3 -84 -6 -95 -69 -91 l-43 3 -3 83 -3
83 58 -3 58 -3 2 -72z m-675 -20 c2 -43 2 -83 0 -89 -4 -14 -111 -9 -126 6
-16 16 2 40 30 40 15 0 24 3 20 7 -4 4 -17 8 -29 8 -15 0 -23 7 -25 22 -3 17
4 24 30 32 l33 11 -32 -3 c-29 -3 -33 0 -33 20 0 22 4 23 64 23 l64 0 4 -77z"/>
<path d="M1875 1940 c-3 -5 -1 -10 4 -10 6 0 11 5 11 10 0 6 -2 10 -4 10 -3 0
-8 -4 -11 -10z"/>
<path d="M1845 1920 c3 -5 8 -10 11 -10 2 0 4 5 4 10 0 6 -5 10 -11 10 -5 0
-7 -4 -4 -10z"/>
<path d="M63 1125 c0 -22 2 -30 4 -17 2 12 2 30 0 40 -3 9 -5 -1 -4 -23z"/>
<path d="M495 980 c-3 -5 -1 -10 4 -10 6 0 11 5 11 10 0 6 -2 10 -4 10 -3 0
-8 -4 -11 -10z"/>
<path d="M291 834 c0 -11 3 -14 6 -6 3 7 2 16 -1 19 -3 4 -6 -2 -5 -13z"/>
<path d="M2782 738 c-1 -20 -5 -45 -8 -55 -5 -17 -5 -17 6 0 6 9 9 34 7 55
l-4 37 -1 -37z"/>
<path d="M2381 674 c0 -11 3 -14 6 -6 3 7 2 16 -1 19 -3 4 -6 -2 -5 -13z"/>
<path d="M298 663 c7 -3 16 -2 19 1 4 3 -2 6 -13 5 -11 0 -14 -3 -6 -6z"/>
<path d="M2360 520 c0 -5 5 -10 11 -10 5 0 7 5 4 10 -3 6 -8 10 -11 10 -2 0
-4 -4 -4 -10z"/>
</g>
</svg>
